#N canvas 735 352 1045 531 12;
#X obj 102 270 list trim;
#X obj 102 246 list prepend midi_note;
#X obj 130 326 list trim;
#X obj 130 302 list prepend midi_noteoff;
#X msg 102 177 \$3 \$4 \$1 \$2;
#X obj 102 201 route 1 0;
#X obj 102 383 outlet;
#X obj 343 156 unpack f f;
#X obj 343 180 - 8192;
#X obj 343 206 / 8192;
#X obj 343 230 pack;
#X msg 343 254 \$2 \$1;
#X obj 343 278 list prepend midi_bend;
#X obj 343 302 list trim;
#X msg 504 155 \$3 \$2 \$1;
#X obj 504 179 list prepend midi_cc;
#X obj 504 203 list trim;
#X msg 695 154 \$3 \$2 \$1;
#X obj 695 178 list prepend midi_polytouch;
#X obj 695 202 list trim;
#X obj 102 75 inlet;
#X obj 102 109 route note bend timbre touch;
#X text 99 424 Sam Knot (2023) KNOTTY library for Pure Data [knotty/are-we.pd] iamalonebutwearenot.com;
#X text 106 36 Formatting midi input for [vstplugin~];
#X text 401 35 (note idiosyncratic routing atm);
#X connect 0 0 6 0;
#X connect 1 0 0 0;
#X connect 2 0 6 0;
#X connect 3 0 2 0;
#X connect 4 0 5 0;
#X connect 5 0 1 0;
#X connect 5 1 3 0;
#X connect 7 0 8 0;
#X connect 7 1 10 1;
#X connect 8 0 9 0;
#X connect 9 0 10 0;
#X connect 10 0 11 0;
#X connect 11 0 12 0;
#X connect 12 0 13 0;
#X connect 13 0 6 0;
#X connect 14 0 15 0;
#X connect 15 0 16 0;
#X connect 16 0 6 0;
#X connect 17 0 18 0;
#X connect 18 0 19 0;
#X connect 19 0 6 0;
#X connect 20 0 21 0;
#X connect 21 0 4 0;
#X connect 21 1 7 0;
#X connect 21 2 14 0;
#X connect 21 3 17 0;
#X connect 21 4 6 0;
