#N canvas 43 0 1391 922 12;
#X obj 82 132 moses 128, f 33;
#X obj 310 156 t f f, f 8;
#X obj 363 189 & 240;
#X obj 82 327 list prepend;
#X obj 82 352 list trim;
#X obj 310 277 & 15;
#X obj 82 377 route 128 144 160 176;
#X obj 624 552 route 192 208 224;
#X obj 928 512 route 240;
#X obj 1082 531 list prepend unexpected status byte:;
#X obj 1082 555 list trim;
#X obj 82 262 list prepend 0;
#X obj 177 209 f 0;
#X obj 210 209 + 1;
#X obj 82 156 t f b;
#X text 327 130 data byte / status byte;
#X obj 195 183 f 0;
#X obj 82 441 t b f;
#X obj 82 476 pack 0 f f;
#X obj 82 586 list prepend note;
#X obj 82 751 list trim;
#X obj 161 535 pack 1 f f;
#X obj 259 481 pack f f;
#X obj 259 505 list prepend touch poly;
#X obj 436 560 pack f f;
#X obj 436 618 list prepend cc;
#X obj 624 582 list split 1;
#X obj 664 611 list prepend pgm;
#X obj 694 641 list split 1;
#X obj 734 670 list prepend touch chan;
#X obj 759 776 list prepend bend;
#X obj 928 543 list split 1;
#X obj 925 641 t l l;
#X obj 952 671 list;
#X obj 925 617 list prepend;
#X obj 928 573 t b b f;
#X obj 952 831 list prepend sysex;
#X obj 82 63 inlet midiin;
#X obj 82 787 outlet midi messages to route;
#X text 685 328 Sam Knot (2023) KNOTTY library for Pure Data [knotty/are-we.pd] iamalonebutwearenot.com;
#X text 768 369 - thanks to a patch by ddw_music;
#X obj 759 725 * 128;
#X obj 759 751 +;
#X obj 177 233 mod 2;
#X obj 161 476 t f f;
#X obj 161 504 != 0;
#X obj 405 277 != 240;
#X obj 475 375 route 1 0;
#X obj 475 440 + 1;
#X obj 310 305 list prepend 1;
#X obj 310 329 list trim;
#X obj 363 213 t b f f;
#X obj 792 433 + 240;
#X obj 792 463 route 240 247;
#X msg 792 497 240;
#X msg 836 497 247;
#X obj 1082 580 print midi-up;
#X obj 927 860 list prepend rt;
#X obj 82 716 list append;
#X obj 436 506 route 1 0;
#X obj 259 449 route 1 0;
#X obj 161 441 route 1 0;
#X obj 82 410 route 1 0;
#X obj 759 698 route 1 0;
#X text 79 821 Same ordering/syntax as native pd midi objects \, exception being notes are prepended with 0/1;
#X text 688 61 128 | note off | note - velo \; 144 | note on | note - velo \; 160 | polytouch | note - val \; 176 | cc | numb - val \; 192 | pgm change | val \; 208 | chan touch | val \; 224 | pitchbend | val \; 240 | sysex start \; 247 | sysex end \; 248 | rt clock \; 249 | rt undefined \; 250 | rt start \; 251 | rt continue \; 252 | rt stop \; 253 | rt undefined \; 254 | rt active \; 255 | rt reset;
#X obj 466 532 t f f;
#N canvas 651 65 1007 776 CC|RPN/NRPN 0;
#X obj 81 50 inlet;
#X obj 325 48 inlet;
#X obj 81 688 outlet;
#X obj 276 689 outlet;
#X obj 325 72 t f f;
#X obj 81 87 list prepend 0;
#X obj 81 111 list trim;
#X obj 81 135 route 0 1;
#X text 504 45 99 = NRPN MSB \; 98 = NRPN LSB \;;
#X text 654 45 101 = RPN MSB \; 100 = RPN LSB \;;
#X text 504 90 6 = value MSB \; 38 = value LSB (opt);
#X msg 195 226 \$2 \$1;
#X obj 195 258 route 101 100 99 98 97 96 38 6;
#X obj 246 289 * 128;
#X obj 272 326 +;
#X obj 195 290 * 128;
#X obj 221 327 +;
#X obj 221 361 sel 16383;
#X text 182 362 NULL;
#X obj 276 588 pack f f;
#X obj 276 653 list prepend NRPN;
#X obj 392 626 list append;
#X msg 574 596 symbol +;
#X msg 495 595 symbol -;
#X obj 379 392 t f b b;
#X obj 443 392 t f b b;
#X obj 392 596 symbol NRPN;
#X obj 281 393 t f b;
#X obj 329 392 t f b;
#X msg 650 506 symbol NRPN;
#X msg 556 505 symbol RPN;
#X obj 511 391 +;
#X obj 596 361 t a b;
#X text 675 89 96 = data increment \; 97 = data decrement;
#X text 504 193 source: http://www.philrees.co.uk/nrpnq.htm;
#X obj 325 121 ||;
#X obj 529 362 * 128;
#X obj 325 96 == 99;
#X obj 371 96 == 101;
#X obj 541 436 t f b;
#X text 503 135 Built upon the expectation of best practice \, which is always to Null after sending N/RPN message \, by sending 127 to 101 then 100 (i.e. RPN 16383);
#X msg 452 277 \$2 \$1;
#X obj 325 145 sel 0;
#X msg 176 392 0;
#X msg 649 333 0;
#X connect 0 0 5 0;
#X connect 1 0 4 0;
#X connect 4 0 37 0;
#X connect 4 1 38 0;
#X connect 5 0 6 0;
#X connect 6 0 7 0;
#X connect 7 0 2 0;
#X connect 7 1 11 0;
#X connect 11 0 12 0;
#X connect 12 0 15 0;
#X connect 12 1 16 0;
#X connect 12 2 13 0;
#X connect 12 3 14 0;
#X connect 12 4 24 0;
#X connect 12 5 25 0;
#X connect 12 6 31 0;
#X connect 12 7 36 0;
#X connect 12 8 41 0;
#X connect 13 0 14 1;
#X connect 14 0 28 0;
#X connect 15 0 16 1;
#X connect 16 0 17 0;
#X connect 17 0 43 0;
#X connect 17 1 27 0;
#X connect 19 0 20 0;
#X connect 20 0 3 0;
#X connect 21 0 20 1;
#X connect 22 0 21 1;
#X connect 23 0 21 1;
#X connect 24 0 19 0;
#X connect 24 1 26 0;
#X connect 24 2 23 0;
#X connect 25 0 19 0;
#X connect 25 1 26 0;
#X connect 25 2 22 0;
#X connect 26 0 21 0;
#X connect 27 0 19 1;
#X connect 27 1 30 0;
#X connect 28 0 19 1;
#X connect 28 1 29 0;
#X connect 29 0 26 1;
#X connect 30 0 26 1;
#X connect 31 0 39 0;
#X connect 32 0 2 0;
#X connect 32 1 44 0;
#X connect 35 0 42 0;
#X connect 36 0 31 1;
#X connect 37 0 35 0;
#X connect 38 0 35 1;
#X connect 39 0 19 0;
#X connect 39 1 21 1;
#X connect 41 0 32 0;
#X connect 42 1 5 1;
#X connect 43 0 5 1;
#X connect 44 0 5 1;
#X restore 436 589 pd CC|RPN/NRPN;
#X text 908 60 (Also extracts RPN/NRPN from CC stream \, + or - if incrementing/decrementing \, float value otherwise);
#X connect 0 0 14 0;
#X connect 0 1 1 0;
#X connect 1 0 5 0;
#X connect 1 1 2 0;
#X connect 2 0 51 0;
#X connect 3 0 4 0;
#X connect 4 0 6 0;
#X connect 5 0 49 0;
#X connect 6 0 62 0;
#X connect 6 1 61 0;
#X connect 6 2 60 0;
#X connect 6 3 59 0;
#X connect 6 4 7 0;
#X connect 7 0 26 0;
#X connect 7 1 28 0;
#X connect 7 2 63 0;
#X connect 7 3 8 0;
#X connect 8 0 31 0;
#X connect 8 1 9 0;
#X connect 9 0 10 0;
#X connect 10 0 56 0;
#X connect 11 0 3 0;
#X connect 12 0 13 0;
#X connect 12 0 43 0;
#X connect 13 0 12 1;
#X connect 14 0 11 0;
#X connect 14 1 12 0;
#X connect 16 0 12 1;
#X connect 17 0 18 0;
#X connect 17 1 18 2;
#X connect 18 0 19 0;
#X connect 19 0 58 0;
#X connect 20 0 38 0;
#X connect 21 0 19 0;
#X connect 22 0 23 0;
#X connect 23 0 58 0;
#X connect 24 0 67 0;
#X connect 25 0 58 0;
#X connect 26 1 27 0;
#X connect 27 0 58 0;
#X connect 28 1 29 0;
#X connect 29 0 58 0;
#X connect 30 0 58 0;
#X connect 31 1 34 0;
#X connect 32 0 34 1;
#X connect 32 1 33 1;
#X connect 33 0 36 0;
#X connect 34 0 32 0;
#X connect 35 0 34 1;
#X connect 35 1 33 0;
#X connect 35 2 34 0;
#X connect 36 0 20 0;
#X connect 37 0 0 0;
#X connect 41 0 42 0;
#X connect 42 0 30 0;
#X connect 43 0 11 1;
#X connect 44 0 45 0;
#X connect 44 1 21 2;
#X connect 45 0 21 0;
#X connect 46 0 49 1;
#X connect 47 0 48 0;
#X connect 47 1 52 0;
#X connect 48 0 58 1;
#X connect 49 0 50 0;
#X connect 50 0 47 0;
#X connect 51 0 16 0;
#X connect 51 1 3 1;
#X connect 51 2 46 0;
#X connect 52 0 53 0;
#X connect 53 0 54 0;
#X connect 53 1 55 0;
#X connect 53 2 57 0;
#X connect 54 0 34 0;
#X connect 55 0 35 0;
#X connect 57 0 20 0;
#X connect 58 0 20 0;
#X connect 59 0 24 0;
#X connect 59 1 66 0;
#X connect 60 0 22 0;
#X connect 60 1 22 1;
#X connect 61 0 44 0;
#X connect 61 1 21 1;
#X connect 62 0 17 0;
#X connect 62 1 18 1;
#X connect 63 0 41 0;
#X connect 63 1 42 1;
#X connect 66 0 24 1;
#X connect 66 1 67 1;
#X connect 67 0 25 0;
#X connect 67 1 58 0;
